<?xml version="1.0"?><svg width="1275" height="1650" xmlns="http://www.w3.org/2000/svg" preserveAspectRatio="xMidYMid meet">
 <title>MIPC Logo</title>
 <metadata>Created by potrace 1.10, written by Peter Selinger 2001-2011</metadata>

 <g>
  <title>Layer 1</title>
  <path id="svg_2" d="m0.5,825c0,454 0.1,639.800049 0.2,412.800049c0.2,-227.100037 0.2,-598.500061 0,-825.500061c-0.1,-227.100006 -0.2,-41.300018 -0.2,412.700012z"/>
  <path fill="#007f00" id="svg_3" d="m926,255.099976c0,0.5 4.600037,5.600006 10.299988,11.300018c5.600037,5.599976 11.900024,12.699982 14,15.699982c25.600037,37 34.600037,48.300018 56.600037,71.399994c21.800049,22.800018 45.900024,42.5 42.599976,34.700012c-0.400024,-0.899994 -1.599976,-5.100006 -2.5,-9.200012c-0.900024,-4.099976 -2.400024,-8.899994 -3.299927,-10.699982c-1,-1.800018 -1.700073,-4.100006 -1.700073,-5.300018c0,-1.099976 -0.900024,-3.799988 -2,-6c-1.099976,-2.199982 -2,-4.799988 -2,-6c0,-1.099976 -1.099976,-4.099976 -2.5,-6.699982c-1.299927,-2.700012 -4.299927,-8.600006 -6.599976,-13.300018c-2.300049,-4.699982 -5.5,-10.099976 -7,-12.099976c-1.600037,-2 -2.900024,-4 -2.900024,-4.5c0,-2.400024 -16.399963,-20.5 -25,-27.600006c-6.099976,-4.899994 -17.599976,-12.5 -20.299988,-13.399994c-1.200012,-0.400024 -3.299988,-1.5 -4.700012,-2.400024c-3.099976,-2.199982 -14.399963,-7 -16.399963,-7c-0.800049,0 -6.200012,-2.299988 -11.900024,-5c-10.200012,-4.899994 -14.700012,-6.099991 -14.700012,-3.899994z"/>
  <path fill="#007f00" id="svg_4" d="m332,260.499969c-1.399994,0.800018 -4.100006,2 -6,2.600006c-1.899994,0.600006 -4.199982,1.700012 -5,2.399994c-0.799988,0.600006 -3.5,2 -6,2.900024c-10.399994,4.099976 -36.299988,18 -38,20.5c-0.299988,0.399994 -2.5,2.099976 -5,3.799988c-7.100006,4.799988 -27,26.799988 -27,29.799988c0,0.400024 -1.300003,2.5 -2.800003,4.800018c-4,6 -5,7.799988 -6.799988,11.699982c-0.900009,1.900024 -2.5,5.300018 -3.5,7.5c-1,2.200012 -2.600006,6.700012 -3.400009,10c-0.800003,3.300018 -2.300003,9.100006 -3.399994,13c-5.300003,18.900024 -6.900009,25 -6.600006,25.300018c0.699997,0.699982 6.199997,-2.800018 9,-5.800018c1.699997,-1.799988 6.600006,-6.099976 11,-9.699982c4.400009,-3.5 14.199997,-12.600006 21.899994,-20.100006c11.300018,-11.200012 15.5,-16.200012 22.800018,-27.200012c5,-7.399994 10.199982,-14.899994 11.699982,-16.5c1.5,-1.699982 4,-5.099976 5.400024,-7.699982c6,-10.399994 20.399994,-28.700012 32.299988,-40.800018c3,-3 5.399994,-6.099976 5.399994,-6.799988c0,-1.600006 -2.899994,-1.5 -6,0.299988z"/>
  <path fill="#ff0000" id="svg_5" d="m617.299988,269.699982c-2.5,0.5 -3.199951,3.299988 -0.899963,3.299988c1.899963,0 2.399963,5.100006 3.099976,32.5c0.299988,12.100006 0.799988,28.900024 1.200012,37.200012c0.5,13.799988 0.400024,15.299988 -1.099976,15.299988c-0.900024,0 -1.600037,0.700012 -1.600037,1.5c0,1.300018 1.400024,1.5 8.700012,1.300018c6,-0.200012 8.799988,-0.700012 9.099976,-1.600006c0.200012,-0.700012 -0.5,-1.600006 -1.699951,-1.899994c-1.600037,-0.399994 -2.100037,-1.300018 -2.100037,-3.700012c0,-9 -2.200012,-76.699982 -2.599976,-80.399994l-0.5,-4.200012l-4.700012,0.100006c-2.599976,0.100006 -5.700012,0.399994 -6.900024,0.600006z"/>
  <path fill="#ff0000" id="svg_6" d="m685.5,274.199982c-4.899963,1.700012 -5.200012,2.399994 -6,11.299988c-0.599976,7.5 -0.899963,8.5 -2.599976,8.5c-2.299988,0 -2.5,2.5 -0.400024,3.800018c1.400024,0.699982 1.200012,3.899994 -1.599976,27.399994c-2.900024,25.600006 -3,26.799988 -1.400024,30.200012c2.299988,4.899994 6.799988,7.899994 11.799988,8c5,0.099976 5.800049,-1.700012 1.5,-2.900024c-2.699951,-0.799988 -3.399963,-1.599976 -3.599976,-4.199982c-0.200012,-1.800018 1.099976,-14.700012 2.700012,-28.800018c1.700012,-14.099976 3.099976,-26.299988 3.099976,-27.099976c0,-1.100006 1,-1.400024 3.799988,-1.200012c2.700012,0.200012 3.700012,-0.100006 3.700012,-1.200012c0,-1 -1.200012,-1.599976 -3.399963,-1.799988l-3.400024,-0.299988l0.700012,-6.700012c0.399963,-3.700012 0.899963,-8.799988 1.299988,-11.5c0.599976,-5.200012 -0.099976,-5.600006 -6.200012,-3.5z"/>
  <path fill="#ff0000" id="svg_7" d="m550,277.999969c-1.899963,0.400024 -6.099976,1.300018 -9.200012,2c-5.699951,1.100006 -7.899963,3.400024 -4.099976,4.200012c2.5,0.5 18.799988,81.899994 16.700012,83.100006c-2.400024,1.399994 -1.700012,4 0.899963,3.399994c1.200012,-0.299988 5.200012,-1.100006 9,-1.799988c5.5,-1 6.700012,-1.600006 6.700012,-3.200012c0,-1.299988 -0.5,-1.700012 -1.5,-1.399994c-0.799988,0.399994 -1.700012,0.199982 -2,-0.300018c-0.700012,-1.099976 -6.5,-29.699982 -6.5,-31.899994c0,-1 1.799988,-2.299988 4.900024,-3.399994c6.899963,-2.399994 11.099976,-7.399994 11.099976,-13.200012c0,-5.199982 -4.399963,-26.799988 -6.399963,-31.099976c-0.900024,-2 -3,-3.900024 -5.800049,-5.300018c-4.599976,-2.199982 -7.899963,-2.5 -13.799988,-1.100006zm7.900024,4.800018c0.5,0.899994 2.599976,10.399994 4.700012,21c4.199951,20.899994 4.099976,21.600006 -1.5,22.399994c-2.5,0.299988 -2.5,0 -6.800049,-21.200012c-2.399963,-11.799988 -4.099976,-22.099976 -3.799988,-22.799988c0.700012,-1.899994 6.299988,-1.5 7.400024,0.600006z"/>
  <path fill="#ff0000" id="svg_8" d="m636,293.999969c0,1.200012 0.700012,2 1.600037,2c1.399963,0 1.5,2.900024 0.899963,28.900024l-0.799988,29l3.200012,3.199982c3,3 3.5,3.100006 9.200012,2.700012l6,-0.399994l-0.600037,7c-0.799988,9.199982 -1,9.599976 -3.899963,9.599976c-2.900024,0 -3.600037,-1.599976 -3.600037,-8.099976l0,-4.900024l-5.5,0c-5.299988,0 -5.5,0.100006 -5.5,2.800018c0,7.600006 8.600037,14.799988 16.700012,13.899994c5.700012,-0.600006 9.099976,-3 11.299988,-8c1.5,-3.5 1.900024,-9.600006 2.900024,-38.200012c0.599976,-18.699982 1.099976,-35.5 1.099976,-37.299988l0,-3.200012l-7,0c-5.599976,0 -7,0.300018 -7,1.5c0,0.800018 0.700012,1.5 1.5,1.5c1.600037,0 1.5,7.400024 -0.399963,46.5l-0.600037,13l-3.399963,0.300018l-3.400024,0.299988l0.700012,-25.299988c0.399963,-13.899994 0.899963,-28 1.200012,-31.399994c0.599976,-5.800018 0.5,-6.100006 -1.700012,-6.700012c-1.299988,-0.399994 -4.799988,-0.700012 -7.600037,-0.700012c-4.599976,0 -5.299988,0.300018 -5.299988,2z"/>
  <path fill="#ff0000" id="svg_9" d="m588.200012,296.699982c-4.799988,3.100006 -6.700012,7 -6.400024,12.899994c0.5,12.200012 4.5,44.100006 5.800049,46.600006c2.199951,4.200012 7,6.799988 12.699951,6.799988c8.5,0 14.600037,-4.899994 15.400024,-12.199982c0.200012,-2.399994 -0.700012,-14.100006 -2,-26.100006c-2.599976,-23.899994 -3.200012,-25.600006 -9.799988,-28.899994c-5.100037,-2.600006 -10.700012,-2.300018 -15.700012,0.899994zm11.299988,3.5c0.799988,3.600006 5.5,49.700012 5.5,54.399994c0,2.899994 -0.5,4.399994 -1.599976,4.800018c-4.900024,1.899994 -5.200012,0.799988 -8.400024,-29.400024c-1.700012,-15.599976 -2.700012,-29.199982 -2.399963,-30.199982c0.799988,-2.800018 6.199951,-2.399994 6.899963,0.399994z"/>
  <path fill="#ff0000" id="svg_10" d="m782.5,294.999969c-0.399963,0.600006 0,1.700012 0.799988,2.300018c1.300049,1 -0.799988,6.699982 -14.199951,39.699982c-13.400024,32.900024 -16.100037,38.5 -17.900024,38.800018c-4.200012,0.600006 -2.200012,2.799988 5.5,6c7.799988,3.199982 10.5,3 8.299988,-0.5c-1,-1.600006 0.5,-6.100006 9.700012,-28.800018c10.799988,-26.699982 11,-27 13.900024,-27c2.599976,0 2.899963,0.300018 2.799988,3c-0.100037,1.600006 -4.900024,14.5 -10.700012,28.5c-13.299988,32.5 -12.400024,29.5 -8.5,31c1.799988,0.700012 7.5,3.300018 12.5,5.900024c7.5,3.699982 9.5,4.299988 10.5,3.299988c1,-1 1,-1.5 -0.200012,-2.200012c-1.299988,-0.799988 -0.5,-2.899994 4.700012,-12.699982c15.799988,-30.200012 21.900024,-40.800018 23.400024,-41.100006c0.899963,-0.200012 2.399963,0.399994 3.299988,1.299988c1.799988,1.900024 1.099976,3.600006 -17.600037,38.200012c-5.399963,10 -9.799988,18.600006 -9.799988,19.200012c0,0.5 2.100037,2.199982 4.799988,3.699982c2.600037,1.600006 8,5 12.100037,7.700012c5.099976,3.399994 7.599976,4.600006 8.399963,3.799988c0.700012,-0.699982 0.700012,-1.399994 -0.099976,-2.399994c-0.900024,-1 2.599976,-7.200012 15.799988,-27.799988c9.400024,-14.5 17,-26.900024 17,-27.400024c0,-1.599976 -10,-7.699982 -11.599976,-7.099976c-1.600037,0.599976 -1.900024,2.599976 -0.400024,2.599976c2,0 0.900024,2.300018 -7.299988,14.800018c-4.599976,7 -11.799988,18.199982 -16.099976,24.899994c-4.300049,6.799988 -8.200012,12.299988 -8.600037,12.299988c-0.399963,0 -1.299988,-0.599976 -1.899963,-1.299988c-0.800049,-1.100006 1.899963,-6.899994 11.899963,-25.799988c7.100037,-13.400024 13.200012,-25.600006 13.5,-27.100006c1.200012,-5.300018 -1.200012,-7.899994 -13,-14c-6,-3.100006 -11.599976,-5.700012 -12.200012,-5.800018c-1.599976,0 -1.699951,2.700012 -0.099976,3.200012c1.900024,0.700012 -26.099976,53.100006 -28.599976,53.600006c-0.900024,0.199982 -1.600037,-0.200012 -1.600037,-0.800018c0,-0.699982 4,-10.899994 8.799988,-22.799988c12.900024,-31.399994 12.600037,-30.700012 11.600037,-34.399994c-1.100037,-3.899994 -6.5,-7.800018 -10.5,-7.800018c-1.600037,0 -2.900024,-0.399994 -2.900024,-1c0,-0.5 1.799988,-5.5 4,-11c2.200012,-5.5 4,-10.299988 4,-10.599976c0,-0.5 -6.799988,-3.600006 -10.700012,-4.800018c-1.199951,-0.399994 -2.399963,-0.199982 -2.799988,0.399994z"/>
  <path fill="#ff0000" id="svg_11" d="m708.100037,300.699982c-6.100037,3.200012 -7.100037,5.600006 -11.700012,29c-2.400024,12 -4.400024,23.200012 -4.400024,24.799988c0,4 4.100037,9.800018 8.299988,11.900024c9.100037,4.199982 18.5,0.399994 21.200012,-8.600006c1.700012,-5.700012 1.900024,-8.399994 0.799988,-9.100006c-0.5,-0.299988 -2.899963,-0.799988 -5.399963,-1.200012l-4.5,-0.699982l-1.400024,7.399994c-0.700012,4 -1.5,7.899994 -1.700012,8.5c-0.699951,1.799988 -6.199951,1.600006 -6.899963,-0.200012c-0.700012,-1.699982 3.5,-25.5 4.700012,-26.899994c0.5,-0.5 4.399963,-0.199982 9.399963,0.800018c4.799988,1 8.799988,1.599976 9,1.399994c0.700012,-0.800018 4.5,-21.5 4.5,-24.700012c0,-10 -12.799988,-17.199982 -21.899963,-12.399994zm11.599976,3.899994c0.299988,0.899994 -0.5,7.399994 -1.799988,14.5c-2.299988,12.5 -2.5,12.899994 -4.900024,12.899994c-5.299988,0 -5.5,-0.799988 -3,-13.699982c1.299988,-6.5 2.700012,-12.600006 3.200012,-13.600006c1.099976,-2.100006 5.700012,-2.200012 6.5,-0.100006z"/>
  <path fill="#ff0000" id="svg_12" d="m462.5,306.199982c-2.199982,1.100006 -4.199982,2.200012 -4.399994,2.399994c-0.299988,0.300018 0.700012,3.200012 4.299988,11.600006l1.600006,3.600006l5,-2.100006c2.700012,-1.100006 5,-2.399994 5,-2.799988c0,-1.300018 -6.299988,-14.900024 -6.899994,-14.900024c-0.299988,0.100006 -2.399994,1 -4.600006,2.200012z"/>
  <path fill="#007f00" id="svg_13" d="m1033.5,306.999969c-0.299927,0.600006 1.800049,3.600006 4.800049,6.800018c3.099976,3.100006 7.099976,8.399994 8.900024,11.699982c1.899902,3.300018 4,6.900024 4.599976,8c2.699951,4.700012 5.5,12.200012 6,16c0.199951,2.200012 1.299927,5.700012 2.299927,7.700012c1.100098,2.100006 1.900024,4.899994 1.900024,6.399994c0,1.5 0.900024,5.800018 2.099976,9.600006c1.100098,3.799988 2.700073,9.899994 3.400024,13.600006c3.099976,14.600006 6.900024,28.5 12.599976,45.699982c2.200073,6.600006 4.5,13.800018 5,16c0.600098,2.200012 1.600098,4.900024 2.300049,6c0.699951,1.100006 1.099976,2.600006 0.900024,3.300018c-0.599976,1.600006 -8.300049,-5.600006 -8.300049,-7.800018c-0.099976,-2.899994 -12.299927,-20.199982 -19.5,-27.5c-7.400024,-7.399994 -20.400024,-18.599976 -25.5,-22c-2.5,-1.599976 -7.900024,-5.5 -12,-8.599976c-4.099976,-3 -8.299988,-6 -9.200012,-6.5c-5,-2.700012 -25.5,-21.700012 -29.399963,-27.100006c-4.600037,-6.5 -7.400024,-8 -7.400024,-4.100006c0.100037,3.799988 2,11.200012 3.400024,12.799988c0.799988,0.800018 1.700012,3.100006 2.099976,5c0.400024,1.900024 1.600037,5.100006 2.600037,7c1,1.900024 2.399963,4.800018 3.199951,6.5c1.700012,3.700012 3.200012,6.5 7.600037,13.5c4,6.400024 26.299988,29 37,37.600006c4.099976,3.200012 10.599976,8.5 14.5,11.700012c3.900024,3.199982 9.5,7.600006 12.300049,9.799988c7.099976,5.300018 28.099976,26.800018 34.5,35.300018c2.899902,3.799988 5.799927,7.099976 6.399902,7.299988c0.800049,0.299988 1.300049,-12.799988 1.800049,-44.899994c0.599976,-46.600006 0,-62.899994 -2.800049,-70.700012c-0.899902,-2.399994 -1.599976,-5.100006 -1.599976,-6c0,-0.899994 -1.099976,-3.899994 -2.5,-6.600006c-1.299927,-2.799988 -2.5,-5.5 -2.5,-6.099976c0,-0.700012 -2.099976,-4.900024 -4.699951,-9.5c-11.599976,-20.700012 -27.700073,-37.200012 -46.5,-47.700012c-6.200073,-3.399994 -7.300049,-3.700012 -8.300049,-2.200012z"/>
  <path fill="#ff0000" id="svg_14" d="m743.299988,309.499969c-1.699951,0.700012 -3.899963,2.5 -4.799988,3.900024c-2.099976,3.199982 -14.5,45.099976 -14.5,49c0,6.799988 7.900024,13.5 15.799988,13.599976c4.200012,0 9.900024,-2.599976 11.800049,-5.5c1,-1.599976 4.299988,-10.699982 4.399963,-12.199982c0,-0.100006 -1.799988,-0.700012 -4.099976,-1.300018c-2.200012,-0.599976 -4.600037,-1.299988 -5.299988,-1.599976c-0.900024,-0.400024 -2.200012,2.099976 -4,8c-2.400024,7.699982 -2.900024,8.599976 -5.100037,8.599976c-5.099976,0 -4.799988,-2.299988 2.700012,-27.599976c3.799988,-13.100006 7.599976,-25.700012 8.200012,-27.900024c0.899963,-3.199982 1.700012,-4.099976 3.799988,-4.299988c4.299988,-0.5 5.099976,2.299988 2.700012,10.200012c-1.100037,3.699982 -1.799988,7.299988 -1.600037,8c0.600037,1.399994 8.300049,4 9.600037,3.199982c1.099976,-0.699982 3.099976,-8.600006 3.099976,-12.299988c0,-9.300018 -12.899963,-16.100006 -22.700012,-11.800018z"/>
  <path fill="#007f00" id="svg_15" d="m225.199997,315.799988c-14,7.199982 -29.299988,21.699982 -42.399994,40.100006c-2.600006,3.599976 -4.699997,7.299988 -4.800003,8.199982c0,0.899994 -0.899994,2.800018 -2,4.100006c-1,1.399994 -2.199997,4.5 -2.599991,6.899994c-0.400009,2.399994 -1.100006,5.300018 -1.700012,6.399994c-0.599991,1.100006 -2.099991,7.200012 -3.5,13.5c-2.099991,9.900024 -2.5,14.800018 -2.899994,34.800018c-0.300003,15.799988 0,25.100006 0.800003,29c0.699997,3.299988 1.300003,15.199982 1.399994,28c0.100006,12.199982 0.400009,22.5 0.800003,22.799988c1,1 2.600006,-0.5 4.199997,-4.100006c4.100006,-8.599976 28.600006,-34.799988 41.300003,-44.299988c15.5,-11.5 23,-18 34.5,-29.600006c7,-7.100006 12.699997,-13.299988 12.699997,-13.699982c0,-0.5 1.5,-2.600006 3.399994,-4.600006c3.900024,-4.399994 10.600006,-13.899994 10.600006,-15.100006c0,-0.399994 1,-2.299988 2.300018,-4.200012c2.099976,-3.199982 3.799988,-6.899994 8.299988,-17.5c2,-4.599976 6.399994,-21.799988 5.799988,-22.399994c-0.699982,-0.699982 -3.599976,2.300018 -7.399994,7.899994c-7,10.200012 -22.399994,24.100006 -44,39.5c-3,2.100006 -6.199997,4.5 -7,5.200012c-0.800003,0.700012 -4.899994,4 -9,7.200012c-10.300003,8 -20.800003,19.599976 -29,32.299988c-3.899994,5.899994 -7,11.100006 -7,11.600006c0,1.699982 -4.099991,6.199982 -5.099991,5.699982c-1.600006,-1.099976 -1,-9 1.099991,-13c1.100006,-2.199982 2,-4.799988 2,-5.899994c0,-1 0.900009,-3.699982 1.900009,-6c2.899994,-6.299988 6.799988,-19.5 7.599991,-25.600006c0.400009,-3 1.400009,-7.299988 2.199997,-9.5c0.700012,-2.199982 1.800003,-7.099976 2.400009,-11c0.5,-3.799988 1.5,-9 2.300003,-11.5c0.699997,-2.5 1.899994,-7.399994 2.599991,-11c0.600006,-3.599976 1.5,-7 2,-7.5c0.400009,-0.599976 1.100006,-2.799988 1.400009,-5c0.399994,-2.199982 1.799988,-6.5 3.099991,-9.5c1.300003,-3 2.699997,-6.599976 3.100006,-8c0.300003,-1.399994 1.199997,-3.199982 1.800003,-4c0.699997,-0.799988 2.5,-3.599976 4,-6.299988c1.5,-2.600006 4.099991,-6.299988 5.899994,-8.100006c4.600006,-4.899994 5.699997,-6.399994 5.699997,-7.600006c0,-1.5 -0.899994,-1.199982 -6.800003,1.800018z"/>
  <path fill="#ff0000" id="svg_16" d="m439.700012,317.299988c-5.600006,3.100006 -6.899994,5.299988 -3,5.100006c1.5,0 3.100006,2.099976 6.699982,8.699982c2.5,4.700012 4.600006,8.899994 4.600006,9.300018c0,0.299988 -1,0.599976 -2.100006,0.599976c-5.899994,0 -11.799988,7.200012 -10.399994,12.700012c1.200012,4.899994 24.5,46.700012 27.300018,49c3.5,3 8,2.899994 12.299988,-0.100006c3.700012,-2.600006 15.700012,-8.699982 25.899994,-13.100006c3.600006,-1.599976 6.600006,-2.899994 6.800018,-3c1,-0.699982 -1.300018,-3.199982 -2.600006,-2.799988c-1.399994,0.299988 -3.800018,-4.200012 -12,-22.600006c-5.700012,-12.699982 -11.5,-25.699982 -12.899994,-29.100006c-1.5,-3.299988 -3.200012,-6 -3.800018,-6c-0.699982,0 -3.799988,1.200012 -6.899994,2.600006c-5.5,2.5 -7,4.899994 -3,4.899994c1.5,0 4.299988,5.5 14.299988,27.400024c11.400024,25.399994 12.200012,27.599976 10.600006,28.799988c-1,0.700012 -2.100006,1 -2.5,0.799988c-0.399994,-0.299988 -4.5,-7.299988 -9.100006,-15.699982c-4.5,-8.399994 -9.199982,-17.100006 -10.399994,-19.300018c-18.699982,-34.099976 -22.799988,-41.5 -23.399994,-41.5c-0.299988,0 -3.200012,1.5 -6.399994,3.300018zm15.299988,34.899994c2.5,4.600006 6.5,12.100006 9,16.799988c2.5,4.700012 6.700012,12.400024 9.300018,17.200012c4,7.299988 4.599976,9.100006 3.699982,10.799988c-1.100006,2.100006 -2.699982,2.5 -4.600006,1.200012c-2.299988,-1.5 -28.399994,-51 -27.799988,-52.600006c0.399994,-0.899994 1.700012,-1.600006 3.299988,-1.600006c2.200012,0 3.200012,1.200012 7.100006,8.200012z"/>
  <path fill="#ff0000" id="svg_17" d="m497.399994,316.899994c-8.099976,3.699982 -10.299988,10.199982 -6.799988,20.5c1.700012,5.099976 1.700012,5.099976 9,2l3.399994,-1.400024l-2.5,-6.899994c-1.399994,-3.799988 -2.5,-7.799988 -2.5,-8.899994c0,-2.399994 2.899994,-3.700012 4.600006,-2c1.100006,1.299988 8.399994,20 8.399994,21.700012c0,0.5 -1.5,1.399994 -3.299988,2c-6.800018,2.299988 -10.5,7.899994 -9.399994,14.399994c0.899994,5.299988 6.799988,19.699982 9.199982,22.5c2.800018,3.199982 8.200012,3.5 13.5,0.600006c1.900024,-1 4.200012,-1.900024 5.200012,-2.100006c4,-0.700012 11.299988,-4.200012 11.299988,-5.399994c0,-0.800018 -0.700012,-1.300018 -1.599976,-1.100006c-1.200012,0.199982 -2.299988,-1.399994 -3.799988,-5.5c-1.100037,-3.200012 -5.200012,-14.399994 -9,-25c-8.200012,-22.600006 -8.300049,-22.899994 -12.400024,-25.300018c-4,-2.5 -8,-2.5 -13.300018,-0.099976zm20.399994,43.699982c4.100037,11.600006 5,14.899994 4.100037,16.100006c-0.700012,0.799988 -2.100037,1.299988 -3.200012,1.100006c-1.400024,-0.200012 -2.799988,-2.600006 -5.400024,-9.800018c-6.699982,-18.199982 -6.699982,-18.299988 -4.199982,-20.299988c1.200012,-0.899994 2.399994,-1.700012 2.799988,-1.700012c0.300018,0 3.000031,6.600006 5.899994,14.600006z"/>
  <path fill="#ff0000" id="svg_18" d="m856.200012,338.699982l-4.200012,6.700012l4.5,2.799988c2.5,1.5 4.700012,2.799988 4.900024,2.799988c0.5,0 8.599976,-12.399994 8.599976,-13.199982c0,-0.700012 -7.700012,-5.800018 -8.700012,-5.800018c-0.5,0 -2.699951,3 -5.099976,6.700012z"/>
  <path fill="#ff0000" id="svg_19" d="m414,359.699982c-1.799988,1.600006 -6.199982,4.799988 -9.799988,7.299988c-6.300018,4.300018 -7.700012,6.600006 -4,6.400024c1.199982,0 7.100006,7.599976 18.299988,23.599976c9,13.100006 16.700012,24.400024 17,25.200012c0.300018,0.799988 -0.199982,2.100006 -1.100006,2.899994c-1.5,1.200012 -2.099976,0.899994 -5.099976,-2.600006c-3.700012,-4.299988 -46.900024,-55.799988 -49.200012,-58.799988c-1.100006,-1.299988 -1.100006,-2 -0.100006,-3.200012c1,-1.199982 0.899994,-1.599976 -0.399994,-2.099976c-1,-0.400024 -3.299988,0.799988 -6.200012,3.199982c-2.599976,2.200012 -5.5,4.600006 -6.5,5.399994c-2.099976,1.700012 -1.099976,4.400024 1.200012,3.5c1.799988,-0.699982 3.399994,1 25.899994,28c10.100006,12.100006 20.700012,24.600006 23.399994,27.800018c3.200012,3.699982 5,6.799988 5.100006,8.399994c0,1.5 0.5,2.799988 1.100006,3c0.700012,0.200012 4.899994,-2.799988 9.5,-6.700012c4.600006,-3.899994 10.299988,-8.299988 12.700012,-9.799988c4.399994,-2.799988 5.299988,-5.899994 1.599976,-5.399994c-1.699982,0.199982 -4.099976,-2.600006 -11.899994,-14c-5.399994,-7.899994 -12.899994,-18.600006 -16.699982,-23.899994c-3.700012,-5.300018 -6.800018,-10.100006 -6.800018,-10.600006c0,-0.600006 0.899994,-1.800018 2,-2.800018c3,-2.699982 1.100006,-5 31.200012,38.700012c4.399994,6.5 8.5,11.799988 8.899994,11.799988c0.5,0 3.200012,-1.599976 5.899994,-3.599976c5.100006,-3.600006 6,-5.900024 2.5,-5.900024c-1.299988,0 -6.699982,-6.899994 -17.199982,-22c-8.400024,-12.099976 -16.400024,-23 -17.800018,-24.299988c-3.799988,-3.200012 -9.399994,-3 -13.5,0.5z"/>
  <path fill="#ff0000" id="svg_20" d="m862.400024,368.399994c-2.200012,1 -7.400024,7 -17.100037,19.699982c-7.699951,10.100006 -14.599976,19.5 -15.299988,20.800018c-2.799988,5.299988 1.400024,15.199982 8,18.599976c3.900024,2 10.900024,1.900024 14.200012,-0.299988c3.200012,-2.100006 9,-9.100006 8.299988,-10.200012c-0.700012,-1.099976 -8.5,-6.299988 -8.799988,-5.899994c-0.200012,0.200012 -2.5,3.200012 -5.099976,6.600006c-2.600037,3.5 -5.5,6.299988 -6.5,6.299988c-2.100037,0 -4.100037,-1.899994 -4.100037,-3.899994c0.100037,-0.899994 7.900024,-11.699982 17.400024,-24.100006c15.5,-20.299988 17.5,-22.5 20.200012,-22.5c4.699951,0 4.299988,3.400024 -1,10.400024c-2.5,3.299988 -4.600037,6.299988 -4.600037,6.799988c0.100037,1.100006 6.5,5.799988 8,5.799988c0.700012,0 2.799988,-2.199982 4.700012,-4.899994c2.5,-3.600006 3.299988,-5.899994 3.299988,-9.100006c0,-5.599976 -4.299988,-11.599976 -9.899963,-13.899994c-5,-1.899994 -7.600037,-2 -11.700012,-0.199982z"/>
  <path fill="#007f00" id="svg_21" d="m1115,385.999969c0,0.5 0.599976,2.400024 1.400024,4.200012c3.5,8.600006 5.900024,18.100006 6.800049,27.299988c1.199951,12.300018 0.299927,37.600006 -2,55c-2.600098,19.700012 -2.5,84.399994 0.199951,96.600006c1.199951,5.400024 1.599976,10 1.199951,12.299988c-1.199951,6.400024 -5.599976,3.5 -5.599976,-3.699951c0,-1.900024 -1.099976,-6.5 -2.5,-10.100037c-1.400024,-3.700012 -2.5,-8.200012 -2.5,-10.099976c0,-1.900024 -0.900024,-5.400024 -1.900024,-7.700012c-7.199951,-15.799988 -10.299927,-21.700012 -14.5,-27c-1.099976,-1.5 -3.399902,-4.5 -5.099976,-6.700012c-1.599976,-2.200012 -10.199951,-10.600006 -18.900024,-18.799988c-22.5,-21 -35.899902,-34.399994 -40.599976,-40.800018c-2.199951,-3 -4.599976,-5.5 -5.199951,-5.5c-1.599976,0 -0.400024,7.700012 2.099976,13.200012c1.099976,2.600006 2.099976,5.899994 2.099976,7.299988c0,1.400024 0.900024,4.300018 2,6.5c1.099976,2.200012 2,4.600006 2,5.300018c0,2.799988 8.599976,21.100006 14.599976,31.200012c5.200073,8.700012 14,21.799988 20.400024,30.5c3,4.099976 6.300049,8.599976 7.200073,10c1,1.399963 3.099976,4.299988 4.799927,6.5c6.400024,8.599976 22.300049,33 25.900024,39.799988c6,11.599976 10.900024,23.900024 11.599976,28.799988c0.300049,2.700012 1.400024,5.400024 2.5,6.400024c1.700073,1.599976 1.900024,1.399963 3.300049,-3.700012c0.799927,-2.900024 1.799927,-7.299988 2.199951,-9.799988c0.400024,-2.5 1.300049,-5.900024 2,-7.600037c0.700073,-1.699951 1.599976,-5 2,-7.299988c0.900024,-5.599976 10.800049,-34.5 12.5,-36.599976c1.300049,-1.600037 5.700073,-15.600037 6.5,-20.5c0.400024,-2.5 1.599976,-7.700012 2.800049,-11.5c2.099976,-6.5 2.199951,-9 2.199951,-37.500031c0,-28.599976 -0.099976,-30.899994 -2.199951,-37c-1.200073,-3.599976 -2.400024,-9.199982 -2.800049,-12.5c-0.400024,-3.299988 -1.099976,-6.5 -1.5,-7c-0.5,-0.599976 -1.299927,-3 -2,-5.5c-0.599976,-2.5 -2,-6.299988 -3,-8.5c-1,-2.199982 -3.400024,-7.399994 -5.299927,-11.5c-3.700073,-8.199982 -14.5,-26.5 -18.600098,-31.699982c-2.599976,-3.300018 -4.099976,-4.100006 -4.099976,-2.300018z"/>
  <path fill="#ff0000" id="svg_22" d="m921.5,391.399994c-3.5,1.5 -53.899963,47.599976 -54.899963,50.099976c-1.5,4 -0.600037,10.200012 2.299988,14.600006c3.299988,5.300018 8,7.899994 14.399963,7.899994c4.200012,0 5.200012,-0.599976 11.600037,-6.099976c3.899963,-3.300018 7.099976,-6.300018 7.099976,-6.5c0,-0.900024 -6.299988,-8.400024 -7,-8.400024c-0.700012,0 -1.200012,0.5 -10.799988,9.200012c-6.700012,6.200012 -8.099976,6.700012 -10.599976,4.200012c-3.600037,-3.600006 -2.400024,-5.100006 21.899963,-27c11.100037,-9.900024 13.5,-12.200012 27.799988,-25.200012c7.800049,-7.100006 10.200012,-8.299988 12.5,-6c2.700012,2.700012 1.200012,5.600006 -7,13.200012l-8.199951,7.699982l4.099976,4.100006l4.099976,4.100006l6.600037,-6.300018c3.599976,-3.5 7,-7.699982 7.599976,-9.599976c3,-9 -7,-21.600006 -17,-21.400024c-0.799988,0.100006 -2.799988,0.700012 -4.5,1.400024z"/>
  <path fill="#007f00" id="svg_23" d="m147.100006,398.699982c-1.699997,2.100006 -3.100006,4.100006 -3.100006,4.600006c0,0.5 -0.800003,2.100006 -1.899994,3.5c-3,4.299988 -14.700005,28.199982 -16.600006,33.899994c-0.900002,2.899994 -2.099998,5.5 -2.599998,5.799988c-0.5,0.400024 -0.900002,2 -0.900002,3.600006c0,1.700012 -0.900002,5.100006 -2,7.700012c-3.400002,8.100006 -5.299995,24.799988 -5.400002,47.199982c0,19.100006 0.400002,23.800018 3.400002,39.000031c1.800003,9.200012 8.300003,29.899963 11.5,36.700012c0.800003,1.699951 1.5,3.699951 1.5,4.399963c0,0.700012 0.900009,3.100037 1.900009,5.299988c2.799988,5.800049 12.599991,35.900024 14.099991,43.300049c1.300003,6.399963 3.300003,10.399963 4.5,9.099976c0.400009,-0.400024 1.300003,-3.099976 2.100006,-6c3.899994,-15.599976 15.099991,-37.5 29.199997,-57.099976c1.699997,-2.5 3.199997,-4.800049 3.199997,-5.100037c0,-0.299988 2.699997,-4.399963 6,-9.299988c19,-27.700012 29.300003,-44.200012 34.800003,-55.5c3.399994,-6.899994 6.199997,-13.300018 6.199997,-14.100006c0,-0.899994 0.800003,-3.5 1.800003,-5.899994c1,-2.399994 2.399994,-6.5 3.100006,-9.300018c0.699997,-2.699982 1.699997,-5.5 2.299988,-6.199982c1.400009,-1.800018 2.400009,-14.300018 1.100006,-14.300018c-0.600006,0 -2.899994,2.5 -5.300003,5.600006c-2.300003,3 -7.399994,8.5 -11.300003,12.200012c-11.699997,10.899994 -36.799988,36.299988 -41.699997,42.099976c-4.199997,5 -11.899994,16.300049 -16.399994,24.300049c-4,6.899963 -7.800003,19.399963 -11.199997,36.799988c-1.400009,7.5 -3.300003,10.799988 -5.300003,9.599976c-1.300003,-0.899963 -1.400009,-19.799988 -0.100006,-27.099976c0.5,-2.799988 1.199997,-13.799988 1.600006,-24.5c0.5,-15.400024 0.300003,-21.700012 -0.900009,-30.000031c-0.899994,-5.799988 -1.899994,-14.799988 -2.199997,-20c-0.399994,-5.199982 -1.399994,-13.099976 -2.199997,-17.5c-2,-11 -2.899994,-43.199982 -1.399994,-52.099976c0.699997,-3.800018 2.399994,-10.600006 3.699997,-15.200012c1.399994,-4.600006 2.399994,-8.600006 2.099991,-8.799988c-0.299988,-0.300018 -1.899994,1.199982 -3.599991,3.299988z"/>
  <path fill="#ff0000" id="svg_24" d="m357.300018,408.999969c-1.100006,0.5 -2.900024,2 -4,3.5c-1,1.400024 -4.400024,5.300018 -7.5,8.700012c-3.200012,3.5 -5.800018,6.600006 -5.800018,7c0,1.299988 2.100006,2 3.300018,1c0.899994,-0.700012 5.099976,2.5 15.199982,11.5c7.700012,6.899994 17.899994,15.899994 22.800018,20.100006c6.299988,5.5 8.599976,8.100006 8.199982,9.299988c-0.299988,1 -0.100006,2 0.5,2.399994c1.200012,0.700012 11.899994,-10.199982 12,-12.099976c0,-1.600006 -2.5,-2.5 -3.699982,-1.300018c-0.5,0.5 -5.200012,-2.899994 -11.800018,-8.699982c-27,-23.700012 -33.5,-29.700012 -33.5,-30.900024c0,-0.699982 0.600006,-1.799988 1.399994,-2.399994c1.5,-1.199982 4.100006,0.399994 10.800018,6.800018l3.799988,3.5l2.600006,-2.5c4.399994,-4.100006 4.899994,-5.800018 2.399994,-8.5c-5.699982,-6 -12.600006,-9.100006 -16.699982,-7.400024z"/>
  <path fill="#ff0000" id="svg_25" d="m928.799988,438.299988c-6.399963,3.299988 -38.099976,26.199982 -39.5,28.600006c-5.699951,9.399994 2.200012,23.099976 13.300049,23.099976c4.5,0 7,-1.5 33.399963,-20.099976c12.200012,-8.600006 13.299988,-9.800018 13.700012,-16.100006c0.900024,-12.300018 -10.5,-20.800018 -20.900024,-15.5zm15.800049,8.199982c0.699951,2.800018 0,3.5 -11.600037,11.600006c-3.599976,2.5 -13,9.100006 -20.899963,14.700012c-8,5.600006 -15.300049,10.199982 -16.300049,10.199982c-2.5,0 -4.299988,-3.699982 -2.699951,-5.599976c1.099976,-1.300018 16.699951,-12.600006 40.399963,-29.200012c7,-4.899994 10.200012,-5.399994 11.100037,-1.700012z"/>
  <path fill="#ff0000" id="svg_26" d="m331,441.299988c-6.5,4.299988 -9,12.100006 -6.299988,19c1.5,3.799988 5,6.399994 33.100006,25.399994c10.199982,6.899994 13.5,7.700012 19.899994,4.600006c7.5,-3.5 11.199982,-15 6.899994,-21.399994c-1.700012,-2.700012 -8.700012,-7.900024 -10.600006,-7.900024c-1.100006,0 -6.5,7.800018 -5.899994,8.400024c0.200012,0.199982 3.200012,2.5 6.700012,5.099976c6.599976,4.800018 7.699982,7.5 4,9.800018c-1.300018,0.899994 -3.800018,-0.399994 -12.700012,-6.399994c-6.100006,-4.100006 -11,-7.900024 -11.100006,-8.5c0,-0.600006 2.300018,-4.400024 5.100006,-8.400024c3.799988,-5.5 4.700012,-7.5 3.700012,-8.099976c-0.700012,-0.400024 -5.5,-3.700012 -10.700012,-7.300018c-8.399994,-5.799988 -10,-6.600006 -14.100006,-6.600006c-3.199982,0 -5.799988,0.700012 -8,2.300018zm10.100006,9.799988c4.100006,2.800018 8.899994,6 10.600006,7.200012c3.799988,2.5 3.899994,3.299988 1.299988,6.699982l-1.899994,2.5l-4.799988,-3.399994c-2.600006,-1.899994 -7.300018,-5.199982 -10.400024,-7.299988c-7.199982,-4.800018 -7.899994,-5.700012 -6.799988,-8.600006c1.299988,-3.299988 3.899994,-2.700012 12,2.899994z"/>
  <path fill="#ff0000" id="svg_27" d="m977.600037,450.899994c-0.400024,0.5 -0.400024,1.5 -0.100037,2.299988c0.700012,1.899994 -72.5,43.5 -73.5,41.700012c-0.5,-0.600006 -1.5,-0.900024 -2.399963,-0.600006c-1.400024,0.600006 -1.300049,1.399994 1.399963,5.899994c1.700012,2.899994 5.299988,9.700012 8,15.000031c3.5,6.799988 5.400024,9.599976 6.400024,9.199951c0.799988,-0.299988 1.200012,-1.299988 0.899963,-2.399963c-0.299988,-1.200012 0.300049,-2 2,-2.600037c2.600037,-0.899963 37.700012,-17.699982 62.5,-29.899994l14.200012,-7l-3,-6.299988c-1.799988,-3.899994 -3.5,-6.200012 -4.200012,-5.899994c-0.699951,0.199982 -1.199951,1.199982 -1.099976,2.199982c0.099976,1.300018 -4.099976,3.800018 -17.5,10.200012c-62.299988,30.000031 -58.099976,28.100006 -59.299988,26.200012c-0.5,-0.800018 -0.900024,-1.900024 -0.900024,-2.5c0,-0.5 16.900024,-10.600006 37.5,-22.300018c20.600037,-11.699982 37.5,-21.799988 37.5,-22.299988c0,-1.700012 -6.099976,-11.800018 -7,-11.800018c-0.5,0 -1.099976,0.400024 -1.399963,0.900024z"/>
  <path fill="#ff0000" id="svg_28" d="m312.5,471.199982c-3.100006,1.799988 -5.399994,5 -6.100006,8.5c-0.299988,1.799988 -0.799988,3.299988 -1.099976,3.299988c-0.200012,0 -5,-2.5 -10.700012,-5.5l-10.299988,-5.5l-3.200012,6.200012c-2.200012,4.100006 -2.899994,6.399994 -2.200012,7.100006c0.700012,0.699982 1.5,0.600006 2.5,-0.200012c1.300018,-1.100006 2.800018,-0.600006 8.800018,2.700012c4,2.199982 15,7.899994 24.299988,12.699982c42.800018,22.000031 42.5,21.899994 41.899994,24.000031c-1.099976,3.5 -2.599976,4.700012 -5.299988,4c-1.399994,-0.400024 -12.299988,-4.400024 -24.100006,-9c-11.799988,-4.5 -23.199982,-8.900024 -25.299988,-9.600006c-3.899994,-1.400024 -4.200012,-2.300018 -2.200012,-7.200012c0.5,-1.299988 0.200012,-1.700012 -1.199982,-1.700012c-1.200012,0 -2.300018,1.100006 -3,3c-1,2.600006 -1.400024,2.900024 -3.5,2.100006c-1.200012,-0.5 -6,-2.299988 -10.600006,-4.100006c-4.600006,-1.799988 -8.600006,-3 -8.899994,-2.699982c-0.200012,0.299988 -0.200012,3 0.199982,6.100006l0.700012,5.599976l8.399994,3.200043c7,2.599976 8.299988,3.5 7.799988,5c-0.399994,1.299988 0,1.799988 1.400024,1.799988c1.099976,0 2.199982,-0.5 2.399994,-1.200012c0.299988,-0.700012 9.299988,2.299988 25.799988,8.599976c27.100006,10.400024 28.200012,10.600037 34.600006,6.700012c1.799988,-1.099976 4,-3.799988 5,-6.099976c1.100006,-2.400024 3.399994,-7.200012 5.200012,-10.799988c2.299988,-4.700012 2.899994,-6.800018 2.099976,-7.300018c-0.699982,-0.400024 -2,-0.200012 -2.899994,0.299988c-1.299988,0.799988 -3.899994,-0.100006 -12.100006,-4.399994c-5.699982,-3.100006 -17.5,-9.200012 -26.099976,-13.700012c-16.200012,-8.399994 -18,-10.100006 -14.200012,-13.199982c1.700012,-1.400024 2.200012,-1.100006 39.399994,18.099976c9.600006,4.900024 17.899994,9 18.5,9c1.399994,0 7.100006,-11.699982 6.100006,-12.699982c-0.399994,-0.399994 -1.5,-0.200012 -2.399994,0.399994c-1.399994,0.899994 -6.300018,-1.299988 -27,-11.799988c-24.899994,-12.800018 -28.600006,-14.100006 -32.700012,-11.700012z"/>
  <path fill="#ff0000" id="svg_29" d="m968,505.699982c-0.799988,0.299988 -10.700012,3.899994 -21.899963,7.899994c-11.400024,4.100037 -21.5,8.299988 -22.800049,9.600037c-5.699951,5.299988 -4.899963,15.399963 1.700012,22c3.299988,3.299988 4.400024,3.799988 8.400024,3.799988c4.5,0 12.599976,-2.5 12.599976,-3.900024c0,-0.399963 -0.700012,-2.899963 -1.599976,-5.5c-1.299988,-3.700012 -2,-4.599976 -3.299988,-4.099976c-5.100037,2.099976 -12.700012,4.5 -14.200012,4.5c-2.600037,0 -4.200012,-3.299988 -2.600037,-5.400024c1,-1.399963 25.700012,-11.099976 26.300049,-10.299988c0,0.099976 1.299988,3.900024 2.799988,8.400024c1.5,4.599976 3.099976,8.5 3.399963,8.699951c0.400024,0.200012 6.100037,-1.599976 12.700012,-4c12.900024,-4.599976 15.900024,-7 17.100037,-13.199951c2.199951,-11.300049 -8.700012,-22.100037 -18.600037,-18.500031zm13.799988,9.500031c1.800049,1.799988 1.400024,4.599976 -0.699951,5.799988c-2.200012,1.099976 -23.200012,9 -24.300049,9c-1,0 -2.899963,-6.299988 -2.099976,-7.100037c1.099976,-1 22.5,-8.799988 24.400024,-8.899963c0.799988,0 2,0.5 2.699951,1.200012z"/>
  <path fill="#ff0000" id="svg_30" d="m290,530.899963c-4.100006,2.200012 -8,8.900024 -8,14c0,4.800049 2.800018,10.100037 6.5,12.200012c4.700012,2.799988 47.200012,13.100037 50.5,12.400024c6.800018,-1.5 11,-7.700012 11,-16.400024c0,-3.899963 -0.600006,-5.599976 -2.600006,-8c-1.399994,-1.799988 -3.399994,-3.5 -4.299988,-4c-2.399994,-1.299988 -44.700012,-12.099976 -47.299988,-12.099976c-1.300018,0 -3.900024,0.799988 -5.800018,1.899963zm28.600006,15c23.5,6.100037 28.299988,7.900024 28.399994,10.200012c0,0.299988 -0.600006,1.400024 -1.399994,2.5c-1.399994,1.900024 -2.100006,1.700012 -28.799988,-5c-15,-3.799988 -28.100006,-7.299988 -29,-7.799988c-1.800018,-0.900024 -2.5,-4.799988 -1.100006,-6.099976c1.299988,-1.400024 5.899994,-0.5 31.899994,6.199951z"/>
  <path fill="#007f00" id="svg_31" d="m1171,544.200012c0,12.299988 -1.400024,23.799988 -3.799927,31.799988c-1.100098,3.599976 -3,9.899963 -4.200073,14c-2.099976,7.5 -3.400024,11.200012 -7.199951,20.5c-1.099976,2.700012 -2.800049,7.099976 -3.700073,9.700012c-1.699951,4.399963 -4.199951,10 -8.199951,18c-1.099976,2 -1.900024,4.399963 -1.900024,5.299988c0,0.899963 -0.799927,3 -1.699951,4.799988c-2.099976,4.099976 -7.099976,18 -8.300049,23.200012c-0.400024,2.200012 -1.5,6 -2.400024,8.5c-1.899902,5.700012 -5.099976,20.299988 -6.599976,30c-0.599976,4.099976 -1.799927,8.200012 -2.699951,9.299988c-1.200073,1.200012 -1.800049,4.099976 -2.099976,8.5c-0.5,10 -0.900024,11.200012 -3.600098,11.200012c-1.5,0 -2.599976,-0.700012 -2.799927,-1.700012c-0.5,-2.5 1.099976,-12.799988 2.799927,-18.900024c0.900024,-3.199951 1.400024,-9.799988 1.400024,-17.5c0,-21.899963 -4.900024,-42.199951 -14.699951,-60.399963c-0.900024,-1.700012 -4.099976,-7.700012 -7.200073,-13.5c-3.099976,-5.799988 -7.199951,-12.799988 -9,-15.5c-3.699951,-5.5 -4.899902,-7.400024 -11.099976,-19c-9,-16.799988 -10.900024,-20.799988 -13.099976,-28.299988c-1.300049,-4.700012 -2.599976,-5.400024 -3.400024,-2c-1.199951,5.099976 5.300049,58.599976 7.5,61.299988c0.400024,0.5 1.099976,3.200012 1.5,6c1,7.599976 4.300049,22 7.599976,32.299988c1.600098,5.099976 2.900024,10.400024 2.900024,11.700012c0,1.399963 0.599976,4.200012 1.400024,6.200012c0.699951,2.099976 2.800049,8.299988 4.5,13.799988c1.699951,5.5 5.099976,16.599976 7.599976,24.700012c2.800049,8.899963 5,18 5.5,23.5c1.200073,11.399963 1.200073,31.199951 0,38.599976c-1.299927,8.099976 -0.5,9.599976 3.099976,6.099976c1.600098,-1.5 2.900024,-3.099976 2.900024,-3.599976c0,-1.200012 12.099976,-18.799988 13,-18.799988c0.400024,0 1.300049,-1.400024 2,-3c0.700073,-1.700012 1.900024,-3.400024 2.700073,-3.900024c0.899902,-0.399963 2.699951,-2.599976 4.199951,-4.799988c1.400024,-2.200012 5.300049,-7.5 8.599976,-11.799988c14.800049,-19.100037 26.300049,-35.900024 27.200073,-39.5c0.299927,-1.400024 1,-3.100037 1.599976,-3.799988c2.5,-3.200012 8.199951,-18.5 12.299927,-32.700012c6.200073,-22.299988 8.400024,-38.600037 8.5,-65.600037c0.100098,-12.5 -0.099976,-23 -0.399902,-23.5c-0.300049,-0.5 -1.300049,-6.299988 -2.100098,-12.899963c-1.5,-11.100037 -5.699951,-25.799988 -7.699951,-27.100037c-0.5,-0.299988 -0.900024,3.700012 -0.900024,8.800049z"/>
  <path fill="#ff0000" id="svg_32" d="m960.5,545.200012c-25.599976,5.399963 -26.399963,5.599976 -29.099976,8.299988c-2.799988,2.799988 -3.299988,9.299988 -1,13.700012c1.599976,3.099976 2,2.899963 -7.700012,4.799988c-6.299988,1.299988 -8.700012,0.399963 -8.700012,-3c0,-1.900024 3.900024,-4 7.299988,-4c3.800049,0 5,-1.400024 4.200012,-5.100037c-1.299988,-6.799988 -1.5,-7.099976 -4.200012,-6.399963c-6.799988,1.700012 -10.699951,7.099976 -10.599976,14.700012c0.099976,6.199951 3.099976,10.899963 8.400024,13.299988c4.599976,2.099976 -0.400024,2.899963 48.199951,-7.100037c26.800049,-5.399963 27.900024,-5.599976 29.200012,-3.799988c1.200012,1.700012 1.400024,1.700012 2,0.200012c0.299988,-0.900024 0.100037,-4.200012 -0.599976,-7.5c-0.600037,-3.200012 -1.400024,-8.099976 -1.799988,-10.799988c-1.800049,-13.100037 -4.900024,-13.700012 -35.600037,-7.299988zm32.299988,8.299988c0.100037,1.099976 -0.099976,2.5 -0.599976,3.200012c-0.700012,1 -51.799988,12.299988 -55.799988,12.299988c-0.700012,0 -1.799988,-1 -2.5,-2.100037c-0.799988,-1.699951 -0.799988,-2.399963 0.299988,-3.5c1.5,-1.5 51.599976,-12.299988 55.799988,-12c1.700012,0.100037 2.600037,0.800049 2.799988,2.100037z"/>
  <path fill="#007f00" id="svg_33" d="m95.5,552.899963c-0.799995,1.700012 -1.5,4.5 -1.5,6.300049c0,1.899963 -0.699997,6.099976 -1.5,9.299988c-3.599998,13.599976 -4.599998,45.899963 -2,62c0.800003,4.899963 2.099998,13.5 2.900002,19c0.800003,5.5 2.099998,11.599976 2.900002,13.5c0.799995,1.899963 1.799995,5.700012 2.199997,8.5c0.700005,5.099976 5.900002,22 7.400002,23.899963c0.400002,0.600037 1.800003,3.700012 3.099998,6.900024c2.099998,5.299988 17.200005,29.099976 20.699997,32.5c1.300003,1.299988 9.600006,12.099976 15,19.5c1.200012,1.700012 2.600006,3.299988 3,3.599976c2.100006,1.600037 18.800003,24.200012 23.600006,32.100037c2.100006,3.399963 4.100006,6 4.300003,5.700012c0.300003,-0.300049 0.699997,-11.900024 0.800003,-25.800049c0.299988,-22.799988 0.5,-26.099976 2.399994,-31.899963c1.199997,-3.600037 2.199997,-7.200012 2.199997,-8c0,-0.799988 1.100006,-5.299988 2.600006,-10c1.399994,-4.700012 3.399994,-11.400024 4.399994,-15c1,-3.600037 3,-10.299988 4.400009,-15c1.399994,-4.700012 2.799988,-10.5 3.199997,-13c0.300003,-2.5 1.300003,-6.100037 2.099991,-8c0.800003,-1.900024 2,-6.200012 2.800003,-9.5c0.699997,-3.299988 2,-8.700012 2.900009,-12c1.899994,-7.5 4.299988,-22.299988 6,-38c0.799988,-6.600037 1.799988,-13.100037 2.399994,-14.5c1.5,-3.900024 2.699997,-27.600037 1.300003,-28.400024c-1.100006,-0.700012 -1.5,-0.099976 -5.100006,9.900024c-3.099991,8.599976 -6.800003,16 -11.699997,23.700012c-2.399994,3.599976 -4.300003,7 -4.300003,7.399963c0,0.400024 -0.599991,1.5 -1.399994,2.299988c-2.300003,2.600037 -14.199997,25 -18.699997,35.400024c-6,13.5 -11.900009,32.099976 -13,40.700012c-0.5,4.700012 -1.400009,10.299988 -1.900009,12.5c-1.199997,5.799988 -0.399994,19.399963 2,32c3.400009,18.200012 3.400009,17.5 1.800003,17.5c-2.5,0 -5.699997,-5.600037 -7.300003,-12.700012c-0.899994,-3.700012 -2.300003,-9.200012 -3.199997,-12.099976c-0.800003,-3 -1.899994,-9.100037 -2.300003,-13.5c-1.099991,-11.100037 -7.699997,-35.5 -12.199997,-44.900024c-1,-2 -1.800003,-4.299988 -1.800003,-5c0,-0.700012 -0.899994,-2.799988 -2,-4.599976c-1.099991,-1.800049 -2,-3.800049 -2,-4.5c0,-0.600037 -1.899994,-5.300049 -4.099998,-10.200012c-5.5,-12.100037 -12.900002,-29.299988 -14.099998,-33c-0.599998,-1.700012 -1.800003,-4.799988 -2.800003,-7c-0.900002,-2.200012 -2,-5.600037 -2.400002,-7.5c-0.399994,-1.900024 -1.5,-6.400024 -2.599998,-10c-1.799995,-6.400024 -5.099998,-25.299988 -5,-29.700012c0,-3.400024 -1.799995,-3.599976 -3.5,-0.400024z"/>
  <path fill="#ff0000" id="svg_34" d="m253.5,568.599976c-0.399994,3.600037 -0.399994,6.900024 0.100006,7.299988c0.5,0.5 13.700012,3.400024 29.399994,6.5c15.700012,3.100037 29.399994,6 30.399994,6.5c1,0.400024 -12.399994,1.200012 -29.799988,1.800049c-17.5,0.599976 -31.900009,1.299988 -32,1.5c-0.199997,0.099976 -0.600006,3.599976 -1,7.5c-0.600006,6.899963 -0.5,7.299988 1.399994,7.299988c1.100006,0 2,-0.700012 2,-1.5c0,-0.799988 0.600006,-1.5 1.400009,-1.5c0.800003,0 18.900009,1.599976 40.199997,3.5c21.299988,1.899963 39.600006,3.5 40.600006,3.5c1,0 1.799988,0.599976 1.799988,1.399963c0,2.100037 2.100006,3.100037 3.100006,1.5c0.5,-0.799988 0.899994,-3.299988 0.899994,-5.699951c0,-4.300049 -1.299988,-5.400024 -3.399994,-2.700012c-1,1.299988 -3.700012,1.200012 -23.100006,-0.5c-12.100006,-1.100037 -22.399994,-2.200012 -23,-2.400024c-1,-0.299988 10.300018,-1 36.800018,-2.200012l13.699982,-0.699951l0,-4.600037l0,-4.599976l-21.699982,-4.400024c-12,-2.399963 -22.5,-4.799988 -23.300018,-5.299988c-1,-0.5 -0.299988,-0.700012 2,-0.299988c3.300018,0.5 37,3.5 39,3.5c0.600006,0 1,0.599976 1,1.399963c0,1.900024 1.899994,3.100037 3,2c0.5,-0.5 1.200012,-4.599976 1.600006,-9.199951c0.5,-6.300049 0.399994,-8.200012 -0.600006,-8.200012c-0.699982,0 -1.799988,0.599976 -2.399994,1.399963c-0.899994,1.100037 -7.600006,0.700012 -42.100006,-2.5c-22.5,-2.099976 -41.299988,-3.799988 -41.699982,-3.899963c-0.5,0 -0.800018,-0.700012 -0.800018,-1.5c0,-0.799988 -0.600006,-1.5 -1.399994,-1.5c-1,0 -1.600006,1.899963 -2.100006,6.599976z"/>
  <path fill="#ff0000" id="svg_35" d="m941.400024,597.399963c-6.400024,2.800049 -10.200012,12.800049 -7.400024,19.600037c2,4.899963 7.100037,8.599976 12.700012,9.399963c7.400024,1 8.299988,0.300049 8.299988,-6l0,-5.299988l-8.700012,-0.299988c-8.299988,-0.299988 -8.799988,-0.400024 -9.099976,-2.599976c-0.799988,-5.200012 2.5,-5.900024 20.599976,-4.5l8.200012,0.599976l0,9.299988l0,9.400024l13.299988,0c11.300049,0 13.700012,-0.299988 16.400024,-2c8,-4.799988 9.099976,-17.900024 2.200012,-24.600037c-2.600037,-2.399963 -3.900024,-2.799988 -12.600037,-3.5c-16.199951,-1.299988 -40.399963,-1 -43.899963,0.5zm57,12.800049c0.799988,1.299988 0.799988,2.299988 0,3.5c-1,1.599976 -2.900024,1.799988 -14.799988,1.899963l-13.600037,0.200012l0,-4l0,-3.900024l13.600037,0.300049c11.799988,0.299988 13.799988,0.5 14.799988,2z"/>
  <path fill="#007f00" id="svg_43" d="m1059.200073,693.200012c-0.700073,0.699951 -1.200073,2 -1.200073,2.899963c0,1 -1.099976,5.299988 -2.400024,9.600037c-1.299927,4.299988 -2.699951,9.799988 -3.099976,12.299988c-0.400024,2.5 -1.5,8.099976 -2.5,12.5c-1,4.399963 -2.099976,11.799988 -2.5,16.399963c-0.400024,4.600037 -1.099976,9.700012 -1.599976,11.5c-0.5,1.700012 -1.400024,11 -2,20.600037c-0.5,9.599976 -1.400024,21.799988 -1.900024,27c-0.5,5.200012 -1.599976,18 -2.400024,28.5c-0.899902,10.399963 -2.199951,21.200012 -3,24c-0.799927,2.700012 -1.599976,7.399963 -2,10.399963c-1.199951,11.100037 -9.299927,36.700012 -14.699951,46.100037c-2.5,4.599976 -3.700012,7.599976 -3.100037,8.200012c0.600037,0.599976 1.5,0.399963 2.300049,-0.400024c2.599976,-2.400024 9.299988,-7.400024 19.899963,-14.900024c10.300049,-7.299988 16,-11.099976 33,-22.099976c25.599976,-16.599976 50.800049,-37.700012 64.5,-53.900024c7.599976,-9 21.5,-29.099976 24.5,-35.399963c1.400024,-2.799988 3.200073,-6.200012 4.200073,-7.700012c1,-1.5 2.5,-4.5 3.299927,-6.799988c0.800049,-2.200012 2.099976,-5.5 2.900024,-7.299988c7.199951,-15.600037 12.599976,-41.900024 12.599976,-61.200012c0,-13.200012 -1.599976,-14.700012 -4.599976,-4.299988c-2.300049,8 -8,20.299988 -12.900024,27.799988c-4.299927,6.5 -17.299927,23.799988 -21.5,28.5c-5.799927,6.5 -16.199951,17.599976 -21.5,23.099976c-14.5,15 -19.5,20.5 -24,26.799988c-2.799927,3.800049 -6.5,9 -8.299927,11.5c-6.900024,9.700012 -13.900024,19.900024 -19.5,28.600037c-6,9.299988 -12.700073,17.5 -14.400024,17.5c-1.400024,0 -0.300049,-6.799988 1.299927,-8.100037c0.800049,-0.599976 1.400024,-1.799988 1.400024,-2.599976c0,-0.799988 1.099976,-3.599976 2.5,-6.200012c5.900024,-11.200012 9.700073,-23.399963 12.099976,-39.599976c1.800049,-11.400024 1.300049,-33 -1.099976,-48c-2.400024,-15.700012 -4.400024,-27.799988 -6,-35.5c-0.799927,-4.100037 -1.900024,-12.200012 -2.5,-18c-2.5,-23.700012 -2.799927,-24.799988 -5.799927,-21.799988z"/>
  <path fill="#007f00" id="svg_44" d="m210,706.099976c0,4.5 -0.699997,10.700012 -1.5,13.799988c-0.699997,3.100037 -1.899994,9.600037 -2.5,14.400024c-0.599991,4.900024 -1.699997,10.5 -2.5,12.5c-0.800003,2 -1.899994,7.299988 -2.5,11.700012c-0.599991,4.399963 -1.800003,11.200012 -2.599991,15.200012c-1.700012,8.599976 -1.900009,37.899963 -0.300003,48.599976c1.800003,12.599976 6.399994,27.700012 11.599991,38.700012c2,4.099976 4.100006,8.200012 4.800003,9c1.699997,2.099976 3.900009,8 3.199997,8.599976c-1,1.100037 -6.399994,-2.599976 -9.299988,-6.299988c-5.700012,-7.400024 -7.400009,-9.900024 -9.800003,-14.299988c-5.800003,-10.5 -14,-22.400024 -23.100006,-33.299988c-7.899994,-9.5 -7.599991,-9.200012 -14.800003,-16.700012c-6.299988,-6.5 -16.799988,-17.700012 -28.199997,-30c-11.599998,-12.5 -22.400002,-25.700012 -26.199997,-31.900024c-6.400002,-10.5 -8.800003,-15.5 -11.800003,-23.899963c-1.799995,-5.100037 -3.599998,-9.300049 -4.099998,-9.300049c-1.699997,0 -2.5,6.400024 -1.599998,12.5c0.599998,3.400024 0.799995,7.5 0.599998,9.200012c-0.199997,1.700012 0.099998,5.299988 0.599998,8c2,11.600037 5.099998,24.799988 6.400002,27.799988c0.800003,1.700012 1.699997,4.400024 2.099998,6.100037c2,9.200012 21.300003,45.099976 26.900002,50c0.599998,0.5 3.299995,3.700012 6.099998,7c7.199997,8.700012 17.600006,19.5 20.600006,21.399963c1.399994,0.900024 5.899994,4.600037 10,8.300049c4.099991,3.699951 9,7.699951 10.899994,9c1.900009,1.299988 7.800003,5.599976 13,9.399963c5.199997,3.900024 10.900009,7.900024 12.600006,9c4.199997,2.600037 15.699997,10.5 22.399994,15.299988c3,2.200012 7.800003,5.300049 10.5,6.900024c2.800003,1.599976 9.100006,5.700012 14,9c5.699997,3.799988 9.400009,5.700012 10,5.099976c0.600006,-0.599976 -0.699997,-4 -3.300003,-9.399963c-5.399994,-10.799988 -10.199997,-22.700012 -10.199997,-25.299988c0,-1.100037 -0.899994,-4.900024 -2,-8.400024c-1.099991,-3.400024 -2,-8.299988 -2,-10.799988c0,-2.5 -0.699997,-7.200012 -1.399994,-10.5c-1.800003,-7.299988 -3.400009,-21.700012 -4.600006,-39c-0.800003,-12 -2.399994,-29.200012 -5,-52.5c-1.899994,-17.100037 -4.099991,-31.299988 -6.099991,-40.5c-6.300003,-28.200012 -7.5,-32.5 -9.400009,-32.5c-1.199997,0 -1.5,1.599976 -1.5,8.099976z"/>
  <path fill="#007f00" id="svg_50" d="m1019,805.599976c-1.399963,1.5 -4.099976,5 -6,7.900024c-9.899963,14.700012 -11.700012,17.299988 -14.200012,20.299988c-1.5,1.799988 -2.799988,3.700012 -2.799988,4.200012c0,0.5 -1.599976,3.5 -3.599976,6.599976c-2,3.100037 -5.400024,9.5 -7.600037,14.200012c-2.199951,4.799988 -4.399963,9.5 -5,10.599976c-0.5,1 -2.599976,6.400024 -4.5,12c-1.899963,5.5 -4.399963,12.5 -5.399963,15.5c-1,3 -1.900024,6.100037 -1.900024,6.900024c0,0.900024 -0.799988,3.400024 -1.799988,5.599976c-2.700012,5.900024 -5.200012,13.300049 -6.799988,19.600037c-0.700012,3 -2.200012,7.299988 -3.400024,9.5c-1.099976,2.099976 -2,4.5 -2,5.299988c0,0.700012 -0.899963,3 -2,5.200012c-1.099976,2.200012 -2,4.799988 -2,5.899963c0,3.400024 -17.799988,37.5 -21,40.100037c-0.299988,0.299988 -1.899963,2.299988 -3.5,4.5c-1.599976,2.200012 -4.899963,6.200012 -7.200012,8.899963c-2.399963,2.600037 -4.299988,5.200012 -4.299988,5.700012c0,1.299988 4.100037,1.100037 9.600037,-0.5c2.699951,-0.799988 6.899963,-1.899963 9.399963,-2.399963c2.5,-0.600037 7.200012,-1.700012 10.5,-2.5c8.299988,-2.100037 25.600037,-5.5 33.700012,-6.700012c3.599976,-0.600037 9.5,-1.900024 13,-2.900024c3.400024,-1.099976 8.099976,-2.299988 10.299988,-2.599976c5.100037,-0.900024 14.600037,-4 21,-7c2.800049,-1.299988 7.300049,-3.299988 10,-4.5c5.099976,-2.200012 9.700073,-4.900024 21.700073,-12.700012c24.199951,-15.5 49.799927,-39.900024 64.399902,-61.200012c13.400024,-19.299988 29,-53.399963 27,-58.599976c-0.5,-1.5 -1,-1.100037 -2.899902,2.299988c-6.5,11.900024 -22.600098,29.200012 -39.700073,42.5c-4.299927,3.400024 -24.599976,16.099976 -32.199951,20.200012c-13.800049,7.399963 -23.400024,12.5 -30.800049,16.299988c-4.699951,2.299988 -11.199951,5.799988 -14.5,7.700012c-3.299988,1.799988 -6.700012,3.700012 -7.5,4.099976c-0.799988,0.400024 -6.700012,3.900024 -13,7.799988c-12.399963,7.600037 -23.5,16.100037 -31.5,24.100037c-8.200012,8.200012 -12.5,11.5 -15.099976,11.5c-4.799988,0 -3.799988,-2.799988 3.899963,-10.700012c11.300049,-11.799988 13.900024,-14.900024 21.100037,-25.799988c12.700012,-19.100037 18.5,-33.799988 23.099976,-58.5c0.299988,-1.900024 1.200012,-6.400024 2,-10c0.799988,-3.600037 1.900024,-11.200012 2.5,-17c0.600037,-5.799988 1.799988,-13.600037 2.600037,-17.400024c0.799988,-3.799988 1.399963,-8.700012 1.399963,-11c0.100037,-2.200012 0.900024,-6.599976 2,-9.599976c1.100037,-3 1.900024,-6.700012 2,-8.200012c0,-1.400024 1.100037,-5.900024 2.5,-10c1.400024,-4 2.5,-7.400024 2.5,-7.599976c0,-0.900024 -1.899963,0.199951 -4,2.399963z"/>
  <path fill="#007f00" id="svg_52" d="m250,809.299988c0,1.700012 0.600006,4 5,18.200012c1,3.299988 2.100006,8.899963 2.5,12.5c0.399994,3.599976 1.5,10.299988 2.600006,15c1.100006,4.700012 2.399994,12.799988 2.899994,18c0.5,5.200012 1.399994,12 2.100006,15c2.299988,11.099976 5,23.700012 6.399994,29.899963c1.600006,7.200012 13.399994,32.300049 16.899994,36.100037c1.300018,1.399963 3.600006,4.700012 5.100006,7.299988c1.5,2.700012 8.100006,10.299988 14.700012,16.900024c7.199982,7.299988 11.799988,12.699951 11.600006,13.699951c-0.5,2.600037 -4.100006,2.400024 -6.800018,-0.399963c-1.299988,-1.400024 -2.699982,-2.5 -3.199982,-2.5c-1.100006,0 -13.100006,-9.100037 -18.300018,-14c-5.899994,-5.400024 -18.699982,-14.700012 -24.699982,-17.900024c-2.900024,-1.5 -7.800018,-4.299988 -10.800018,-6.099976c-3,-1.799988 -14,-7.700012 -24.5,-13c-10.399994,-5.299988 -19.899994,-10.100037 -21,-10.700012c-1.099991,-0.599976 -4.899994,-2.599976 -8.5,-4.400024c-3.599991,-1.799988 -7.599991,-4.099976 -8.899994,-5.099976c-1.300003,-1 -2.800003,-1.799988 -3.400009,-1.799988c-1.099991,0 -2.899994,-1.100037 -16.199997,-10c-15.5,-10.400024 -28.699997,-23.100037 -37.099991,-36c-6.100006,-9.100037 -8.100006,-11.600037 -9.000008,-10.700012c-0.5,0.400024 -0.099998,2.200012 0.799995,4c0.900009,1.799988 2,4.799988 2.300003,6.700012c0.400009,1.899963 1.800003,5.5 3,8c2,3.799988 4.100006,8.299988 7.900009,17c2.199997,5 6.5,11.399963 19.299988,28.799988c18.700012,25.400024 48.300003,50.400024 76.800003,65c10,5.099976 14.800003,7.099976 19.5,8.099976c2.5,0.600037 7.100006,1.900024 10.200012,3.100037c3.199982,1.099976 6.600006,2 7.600006,2c1.099976,0 4.599976,0.799988 7.799988,1.899963c3.299988,1 9.5,2.200012 13.899994,2.600037c4.399994,0.299988 11.399994,1.5 15.5,2.5c4.100006,1 10.399994,2.200012 14,2.599976c3.600006,0.299988 7.5,1 8.800018,1.5c1.199982,0.5 6.599976,1.799988 12,3c5.299988,1.100037 10.799988,2.299988 12.099976,2.600037l2.400024,0.599976l-1.900024,-3.299988c-1,-1.700012 -3.199982,-4.299988 -4.799988,-5.700012c-6.200012,-5.200012 -22,-28.400024 -24.100006,-35.299988c-0.399994,-1.400024 -2.5,-6.100037 -4.699982,-10.5c-4.100006,-8.299988 -5.900024,-12.799988 -8.200012,-20.5c-0.799988,-2.5 -3,-9 -5,-14.5c-2,-5.5 -4.5,-12.900024 -5.5,-16.5c-2.299988,-8.200012 -3.700012,-12.200012 -6.700012,-18.799988c-1.299988,-2.900024 -2.399994,-6.100037 -2.399994,-7.100037c0,-1.599976 -3.600006,-9.799988 -7.399994,-17.099976c-0.700012,-1.400024 -2.399994,-4.700012 -3.700012,-7.5c-4.199982,-8.700012 -23.199982,-38.100037 -30.799988,-47.400024c-2,-2.5 -4.100006,-5.200012 -4.800003,-6c-1.100006,-1.399963 -1.199997,-1.399963 -1.300003,0.200012z"/>
  <path fill="#007f00" id="svg_62" d="m939.799988,922c-1.799988,1.599976 -5.899963,5 -9,7.399963c-5.5,4.200012 -8.5,6.900024 -25.199951,22.800049c-7.5,7.099976 -55.400024,55 -56.5,56.5c-3.200012,4.399963 -22.800049,17.600037 -33.100037,22.399963c-4.099976,1.800049 -8.099976,3.900024 -8.799988,4.599976c-0.700012,0.600098 -3.299988,1.5 -5.900024,1.900024c-2.599976,0.400024 -6,1.5 -7.699951,2.400024c-1.700012,0.900024 -5.700012,2.300049 -8.900024,2.900024c-5.099976,1.099976 -8,3.199951 -6.5,4.699951c0.299988,0.200073 5.599976,1.400024 11.900024,2.5c6.299988,1.099976 13.599976,2.700073 16.299988,3.5c2.599976,0.800049 5.599976,1.400024 6.5,1.400024c1,0 5,1.099976 8.899963,2.5c3.900024,1.400024 8.200012,2.5 9.400024,2.5c1.299988,0 7,1.099976 12.799988,2.400024c29,6.799927 42.400024,9 64.799988,10.599976c21.5,1.5 49.700012,-3.300049 65.200012,-11c1.900024,-0.900024 5,-2 6.900024,-2.400024c1.899963,-0.299927 3.899963,-1 4.5,-1.5c0.599976,-0.599976 3.700012,-2.299927 6.700012,-3.900024c6.799988,-3.5 22.199951,-13.599976 26.5,-17.099976c1.599976,-1.400024 5,-4.199951 7.399963,-6.099976c13.099976,-10.600037 34,-35.299988 34,-40.200012c0,-0.5 -3.299927,1.700012 -7.299927,4.900024c-3.900024,3.199951 -8.700073,6.799988 -10.5,8.099976c-4.900024,3.5 -24.200073,12.900024 -28.900085,14.099976c-2.299988,0.600037 -6.099976,2 -8.5,3.100037c-2.399963,1.099976 -5.899963,2 -7.899963,2c-1.900024,0 -5.5,0.700012 -8,1.5c-4.900024,1.599976 -39.200012,5.599976 -68.200012,8c-10.400024,0.800049 -19.200012,1.699951 -19.5,1.900024c-0.400024,0.199951 -8.299988,1.400024 -17.599976,2.599976c-9.300049,1.199951 -18.100037,2.699951 -19.5,3.400024c-3.200012,1.599976 -21.5,4.099976 -23,3.199951c-3.200012,-2 2.599976,-6.900024 9.399963,-8c4,-0.699951 11.900024,-3.599976 16.5,-6.299927c1.400024,-0.700073 4.299988,-2.300049 6.5,-3.400024c6,-3.000061 7.400024,-3.900024 15,-10.000061c9.900024,-8 15,-14.099976 22.5,-26.899963c4.200012,-7.100037 14,-26.400024 14,-27.5c0,-0.700012 3.700012,-9 6.299988,-14c6.200012,-11.900024 8.700012,-17.100037 8.700012,-17.799988c0,-0.5 1.100037,-2.200012 2.5,-3.900024c4.600037,-5.5 2.400024,-8.599976 -2.700012,-3.799988z"/>
  <path fill="#007f00" id="svg_63" d="m327,924.200012c0,0.699951 1.600006,3.799988 3.5,6.799988c1.899994,3 4.200012,7.099976 5.100006,9c0.899994,1.899963 3,6.200012 4.700012,9.5c1.599976,3.299988 4.5,9.099976 6.399994,13c1.799988,3.799988 3.899994,8.099976 4.699982,9.5c0.800018,1.399963 3,5.700012 5,9.599976c13.800018,27.700012 34.200012,47 56.600006,53.599976c1.899994,0.600098 5.200012,1.900024 7.200012,2.900024c2.100006,1.099976 5,1.900024 6.600006,1.900024c1.599976,0 4.299988,0.5 6.099976,1.099976c2.400024,0.900024 3.100006,1.599976 2.900024,3.300049c-0.300018,1.900024 -1,2.099976 -6.700012,2.400024c-4.299988,0.199951 -8.5,-0.400024 -13,-1.700073c-3.600006,-1.199951 -9.700012,-2.5 -13.600006,-3.099976c-3.799988,-0.5 -9.199982,-1.599976 -12,-2.5c-2.699982,-0.800049 -7.899994,-1.5 -11.5,-1.5c-6.5,0 -22.5,-1.099976 -44,-3.099976c-6.299988,-0.599976 -18.199982,-1.700073 -26.5,-2.400024c-16.600006,-1.5 -34.399994,-4.699951 -41.899994,-7.599976c-2.700012,-1.000061 -5.600006,-1.900024 -6.5,-1.900024c-0.899994,0 -3.799988,-1.200012 -6.600006,-2.5c-2.699997,-1.400024 -5.599991,-2.5 -6.399994,-2.5c-2.400009,0 -14.300003,-7.100037 -22.800003,-13.700012c-11.600006,-8.900024 -11.899994,-6.599976 -0.800003,7.200012c7,8.700012 18.699997,20.5 26.5,26.599976c4.100006,3.200073 9.200012,7.200073 11.399994,8.900024c2.100006,1.599976 4.400024,3 5,3c0.700012,0 2.300018,1.099976 3.600006,2.5c1.300018,1.400024 2.899994,2.5 3.600006,2.5c0.700012,0 5.200012,2 10.100006,4.400024c12.299988,6.199951 22.799988,10.599976 25.100006,10.599976c1.099976,0 3.899994,0.699951 6.299988,1.599976c5.399994,1.900024 30,5.300049 38.899994,5.400024c16.200012,0 54.5,-5.400024 71,-10c3.600006,-1 8.5,-2.300049 11,-2.800049c8.100006,-1.899902 17.399994,-4.299927 24,-6.199951c10.700012,-3.199951 27.100006,-6.900024 32.899994,-7.400024c6.600006,-0.599976 8.600006,-2.099976 4.700012,-3.599976c-1.5,-0.5 -3.5,-1 -4.399994,-1c-1,0 -4.300018,-0.900024 -7.5,-2c-3.100006,-1.099976 -6.399994,-2 -7.399994,-2c-1,0 -2.700012,-0.699951 -3.800018,-1.599976c-1.100006,-0.800049 -4.799988,-2.300049 -8.199982,-3.400024c-9.600006,-2.900024 -22.700012,-10.5 -36,-20.799988c-5.600006,-4.300049 -35.800018,-32.900024 -59.300018,-56.200012c-7.899994,-7.799988 -38.600006,-34.200012 -41.5,-35.799988c-2,-1 -2.5,-1 -2.5,0z"/>
  <path fill="#007f00" id="svg_77" d="m690,1048c-6.899963,0.300049 -13,0.900024 -13.5,1.199951c-0.599976,0.300049 -5.399963,1.100098 -10.700012,1.800049c-5.5,0.599976 -12.399963,2.199951 -15.799988,3.599976c-7.299988,2.900024 -15,3.099976 -22.399963,0.5c-2.900024,-1 -10.200012,-2.599976 -16.200012,-3.5c-6,-1 -12.799988,-2.099976 -15.100037,-2.699951c-8.199951,-1.800049 -24.5,-1 -43,2.099976c-21.399963,3.599976 -34.299988,7 -49.499969,13.099976c-2.600006,1 -5.200012,1.900024 -5.800018,1.900024c-0.699982,0 -3.899994,1.300049 -7.299988,2.900024c-3.399994,1.699951 -9.300018,4.199951 -13.200012,5.699951c-3.799988,1.400024 -10.899994,4.599976 -15.600006,7c-4.799988,2.400024 -9.199982,4.400024 -9.799988,4.400024c-0.600006,0 -4.700012,1.800049 -9,4c-20.100006,10 -41.899994,15 -67.100006,15.099976c-15.699982,0 -30,-1.400024 -36.799988,-3.699951c-2.300018,-0.700073 -5,-1.400024 -6,-1.400024c-0.899994,0 -3.100006,-0.900024 -4.899994,-1.900024c-1.700012,-1.099976 -5.100006,-2.5 -7.5,-3.099976c-2.300018,-0.699951 -5.100006,-1.800049 -6.200012,-2.599976c-2.600006,-1.800049 -5.600006,-1.800049 -5.600006,0c0,3.5 32.700012,26.400024 43.5,30.400024c1.700012,0.599976 7.100006,2.799927 12,5c15.800018,6.899902 28.100006,9.099976 52.600006,9.099976c14.100006,0.099976 19.799988,-0.300049 23.5,-1.400024c2.700012,-0.900024 7.799988,-2.199951 11.399994,-3c8.899994,-1.900024 22,-6.599976 30.800018,-10.900024c4,-2 7.5,-3.599976 7.699982,-3.599976c0.5,0 14.800018,-9 18.5,-11.699951c1.300018,-1 4.200012,-2.800049 6.400024,-4.100098c2.299988,-1.299927 8.099976,-5.399902 13.099976,-9.099976c18.200012,-13.599976 22,-16.299927 25.700012,-18.199951c2,-1 3.900024,-2.300049 4.299988,-2.800049c1,-1.699951 12.600037,-6.799927 21.5,-9.5c6.700012,-2 10.600037,-2.599976 18.200012,-2.599976c10.700012,0 14.799988,1 14.799988,3.699951c0,2.700073 -4.5,7 -7.899963,7.800049c-1.700012,0.400024 -3.400024,1.099976 -3.700012,1.699951c-0.299988,0.5 -2.5,1.800049 -4.799988,2.900024c-8.400024,4 -25.700012,14.5 -35.100037,21.400024c-3.299988,2.5 -8.700012,6.300049 -12,8.599976c-5.899963,4.200073 -7.5,5.5 -22.5,18.099976c-11.599976,9.900024 -12.5,10.700073 -22.100006,20.200073c-4.899994,4.900024 -8.899994,9.599976 -8.899994,10.599976c0,2.599976 16.400024,17 19.400024,17c0.799988,0 2.200012,-1.199951 3.200012,-2.800049c1,-1.5 2.199951,-3.199951 2.799988,-3.799927c0.599976,-0.599976 3.399963,-4 6.099976,-7.400024c6.100037,-7.699951 27.100037,-29 38,-38.699951c12.5,-11.100098 29.799988,-24.5 38.600037,-29.900024c2.599976,-1.599976 6.599976,-4.300049 9,-6c7.399963,-5.200073 22.699951,-12.400024 26.199951,-12.300049c1.200012,0 4.5,1.300049 7.200012,2.900024c2.799988,1.599976 6.400024,3.599976 8,4.599976c1.700012,0.900024 6.299988,3.900024 10.299988,6.5c4,2.700073 7.5,4.900024 7.800049,4.900024c0.299988,0 2.199951,1.300049 4.199951,2.800049c2,1.599976 6.200012,4.699951 9.200012,7c3,2.299927 7.400024,5.899902 9.700012,8c2.400024,2.199951 6,5.199951 8,6.799927c6,4.5 26.5,24.300049 46.700012,45.200073c6,6.099976 11.5,11.199951 12.099976,11.199951c1.900024,0 18.5,-16 18.5,-17.699951c0,-3.600098 -37.399963,-35.800049 -59,-50.800049c-12.200012,-8.400024 -29.299988,-19.599976 -33.5,-21.699951c-5.399963,-2.800049 -9.899963,-5.300049 -12.5,-7c-1.399963,-0.800049 -3.799988,-1.900024 -5.5,-2.300049c-3.899963,-0.900024 -6.5,-3.300049 -6.5,-6.099976c0,-3.300049 4.5,-4.400024 17.900024,-4.400024c12.700012,0 23.799988,2.5 31.599976,7.099976c4,2.300049 17.5,11.800049 18.5,12.900024c0.299988,0.300049 2.5,1.800049 5,3.300049c2.5,1.5 7.200012,4.699951 10.5,7.199951c8.400024,6.199951 23.600037,16.5 24.299988,16.5c0.400024,0 2.700012,1.400024 5.200012,3c2.5,1.599976 5,3 5.5,3c0.600037,0 4.200012,1.699951 8,3.699951c3.900024,2.100098 8.799988,4.300049 11,5c2.200012,0.600098 6.700012,2 10,3.100098c15.200012,5 21,6.299927 34,7.699951c12.299988,1.199951 15.799988,1.199951 28.600037,0c8.199951,-0.900024 17.099976,-2.400024 20.399963,-3.5c3.200012,-1.099976 6.700012,-2 7.700012,-2c3.799988,0 22.900024,-8.900024 34.299988,-16c15.299988,-9.599976 32.299988,-23.900024 30.900024,-26.099976c-0.299988,-0.5 -2.200012,0 -4.200012,1.099976c-6.299988,3.300049 -16.900024,7.900024 -19.900024,8.599976c-1.5,0.300049 -5.699951,1.400024 -9.299988,2.400024c-18.200012,5.099976 -56,4.800049 -71.5,-0.5c-3.899963,-1.400024 -8,-2.5 -9.099976,-2.5c-1.700012,0 -11.299988,-3.599976 -20.100037,-7.599976c-1.699951,-0.800049 -3.599976,-1.400024 -4.199951,-1.400024c-0.600037,0 -3.700012,-1.400024 -6.900024,-3c-3.299988,-1.699951 -6.700012,-3 -7.599976,-3c-0.900024,0 -8,-3.099976 -15.900024,-6.800049c-19,-9.199951 -20.5,-9.799927 -32.099976,-13.699951c-13.300049,-4.400024 -25.5,-7.300049 -35.200012,-8.5c-4.400024,-0.5 -10.799988,-1.300049 -14.400024,-1.900024c-10.599976,-1.599976 -13.899963,-1.799927 -27,-1.099976z"/>
  <path fill="#ff0000" id="svg_78" d="m875.400024,1194.900024c-1.700012,0.900024 -8,2.299927 -14,3c-6,0.699951 -14.5,2.199951 -18.900024,3.299927c-4.399963,1.200073 -10.5,2.400024 -13.5,2.800049c-3,0.400024 -12.5,2.5 -21,4.5c-8.5,2.099976 -18.599976,4.400024 -22.5,5.199951c-3.799988,0.800049 -11.899963,2.5 -18,3.800049c-6,1.300049 -13.5,2.900024 -16.5,3.5c-3,0.599976 -8.899963,1.699951 -13,2.5c-4.099976,0.800049 -11.799988,2.199951 -17,3c-5.200012,0.900024 -11.5,2 -14,2.5c-13.799988,3 -119.599976,3.699951 -147,1c-40.299988,-4 -71.600006,-8.5 -81.899994,-11.900024c-3.100006,-1 -7.600006,-2.199951 -10.100006,-2.5c-2.5,-0.400024 -7.399994,-1.599976 -11,-2.699951c-3.600006,-1 -9.899994,-2.599976 -14,-3.300049c-10.100006,-1.900024 -34.699982,-7.299927 -38.899994,-8.5c-4.5,-1.400024 -15.299988,-2.799927 -34.200012,-4.5c-13.399994,-1.199951 -17.199982,-1.199951 -26.5,0c-19.299988,2.5 -20.099976,2.800049 -37.599976,12.099976c-8.700012,4.700073 -15.600006,11.5 -16.300018,16.200073c-1.100006,6.900024 0,6.599976 -23.600006,6.299927c-11.799988,-0.199951 -23.099991,-0.699951 -25.199997,-1.199951c-2.099991,-0.400024 -16.299988,-0.699951 -31.5,-0.5c-29.5,0.300049 -35.799988,1 -52.099991,5.900024c-4.699997,1.400024 -9.800003,2.599976 -11.400009,2.599976c-2.899994,0 -20.199997,5.400024 -22.199997,6.900024c-0.5,0.5 -2.799995,1.400024 -5,2.099976c-5.699997,1.900024 -26.699997,12.5 -35.199997,17.900024c-4,2.5 -10,6.299927 -13.300003,8.400024c-10.700001,6.699951 -10,8 9,18c2.5,1.299927 9.700005,5.299927 16,8.899902c6.300003,3.600098 14.400002,8 18,9.800049c10.200005,5.099976 30.300003,16.199951 32.300003,17.800049c2.5,2.199951 2.100006,6.399902 -1,10.5c-15.100006,20 -19.700005,26 -25.300003,33c-3.599998,4.5 -10.099998,13 -14.299995,18.899902c-4.300003,5.900024 -8.300003,11.300049 -9,12c-0.700005,0.700073 -4.300003,5.600098 -8,10.800049c-3.700005,5.199951 -8.700005,12 -11.200005,15c-4.699997,5.900024 -6.299995,10.699951 -3.299995,10.199951c1.599998,-0.199951 9.099998,-5 14.199997,-8.899902c2.099998,-1.600098 28.599998,-15.100098 38.099998,-19.400024c11.400009,-5.099976 25,-10.099976 31.100006,-11.400024c10.899994,-2.400024 10.800003,-2.400024 32.399994,-3.5c22,-1.099976 63.600006,0.099976 70,2c11.100006,3.300049 49.600006,5.5 65.800018,3.800049c16.299988,-1.700073 35.399994,-8.700073 40.699982,-15c2.200012,-2.600098 2.5,-3.900024 2.5,-10.700073c0,-10 1,-11.099976 10.200012,-11.099976c3.600006,0 8.299988,0.599976 10.399994,1.400024c2.200012,0.699951 7.299988,1.599976 11.399994,2c4.100006,0.400024 13.100006,2 20,3.599976c25.899994,6 49.300018,10.599976 70.5,13.900024c3.300018,0.5 10.700012,1.900024 16.5,3c22.900024,4.5 41.100037,7.199951 53.799988,8.199951c7.400024,0.5 13.800049,1.099976 14.200012,1.400024c0.5,0.300049 13.400024,1 28.700012,1.599976c36.200012,1.400024 54.299988,0.200073 112.799988,-7.5c6.100037,-0.799927 14.400024,-1.799927 18.5,-2.099976c10.100037,-0.900024 46.200012,-7 48.600037,-8.199951c1,-0.600098 4.399963,-1.300049 7.399963,-1.600098c3,-0.399902 8.900024,-1.599976 13,-2.699951c4.100037,-1.099976 10.900024,-2.5 15,-3c4.100037,-0.599976 11.100037,-1.900024 15.5,-3c4.400024,-1.099976 13,-2.699951 19,-3.5c37.5,-5.199951 35.100037,-5 37.799988,-3.199951c2.300049,1.5 2.5,2.299927 2.800049,10.599976l0.399963,9l4.400024,4.5c4.599976,4.699951 10.099976,7.5 21.099976,10.799927c13.700012,4.200073 65.700012,3.400024 81.600037,-1.199951c5.5,-1.699951 12.099976,-2.300049 33.499939,-3.099976c41.800049,-1.700073 69.100098,1.099976 85.700073,8.699951c2.900024,1.300049 5.699951,2.400024 6.299927,2.400024c2.100098,0 24.200073,10.099976 32.400024,14.699951c9.599976,5.5 15.300049,9 27.599976,17c7.100098,4.600098 9.100098,1.700073 4,-5.899902c-1.599976,-2.400024 -6.799927,-11.100098 -11.599976,-19.300049c-4.799927,-8.300049 -9.5,-16.099976 -10.5,-17.5c-0.900024,-1.400024 -3.400024,-5.599976 -5.5,-9.400024c-2.099976,-3.900024 -6.299927,-10.799927 -9.199951,-15.5c-2.900024,-4.699951 -7.599976,-12.799927 -10.400024,-17.900024c-2.800049,-5.099976 -6.199951,-10.5 -7.400024,-12c-2.699951,-3.299927 -3.799927,-6.599976 -3,-9.099976c0.599976,-2.099976 32,-28.199951 57.700073,-48c2.599976,-2 4.899902,-4.199951 5.199951,-4.900024c0.900024,-2.099976 -1.199951,-5 -5.599976,-7.799927c-2.300049,-1.5 -4.599976,-3.099976 -5.200073,-3.599976c-3.599976,-3.100098 -23.5,-13.5 -37.5,-19.5c-12.5,-5.300049 -28.099976,-10.300049 -32.5,-10.300049c-3.199951,0 -4.699951,-0.400024 -17.599976,-3.900024c-10.299927,-2.900024 -52.900024,-4.799927 -71.400024,-3.299927c-6.999939,0.599976 -20.699951,1.299927 -30.499939,1.599976c-19.800049,0.599976 -22.100037,0 -22.100037,-5.300049c0,-1.599976 -0.899963,-4 -2,-5.299927c-3.299988,-4.300049 -19.299988,-15.300049 -25.200012,-17.400024c-2,-0.700073 -4.699951,-1.900024 -6,-2.700073c-1.299988,-0.799927 -5.399963,-2 -9.199951,-2.699951c-3.800049,-0.599976 -8.200012,-2 -9.700012,-3.099976c-2.5,-1.700073 -4.400024,-1.900024 -23.100037,-1.800049c-16.899963,0.099976 -20.799988,0.400024 -23.399963,1.800049z"/>
 </g>
</svg>